<svg width="14" height="12" viewBox="0 0 14 12" fill="none" xmlns="http://www.w3.org/2000/svg">
<path d="M5.29654 6.16516L7.19178 5.01402L9.08702 3.86287M12.7235 2.7207L8.41489 10.2466C8.02876 10.921 7.83557 11.2584 7.60255 11.3366C7.40044 11.4045 7.17232 11.3773 6.98962 11.2628C6.77896 11.1309 6.66125 10.7556 6.42667 10.0059L5.33675 6.52228C5.29953 6.4033 5.28084 6.34402 5.25097 6.28974C5.22446 6.24157 5.1918 6.19643 5.15309 6.15567C5.11047 6.11078 5.05836 6.07311 4.95666 5.99961L1.83302 3.74175C1.16226 3.25691 0.826881 3.01432 0.773826 2.78664C0.727813 2.58918 0.78747 2.38675 0.933898 2.24293C1.10274 2.0771 1.5192 2.04401 2.35196 1.97826L11.6414 1.24478C12.2961 1.19308 12.6236 1.16733 12.819 1.2794C12.9892 1.37702 13.1068 1.53727 13.1405 1.71778C13.1792 1.9249 13.0269 2.19083 12.7235 2.7207Z"  stroke="white" 
  stroke-width="1.5" 
  stroke-linecap="round" 
  stroke-linejoin="round" />
</svg>
