<svg width="13" height="13" viewBox="0 0 13 13" fill="none" xmlns="http://www.w3.org/2000/svg">
<path d="M4.85 4.85V4.35C4.57386 4.35 4.35 4.57386 4.35 4.85H4.85ZM4.90478 4.85H5.40479C5.40479 4.57386 5.18093 4.35 4.90478 4.35V4.85ZM8.15 4.85V4.35C7.87386 4.35 7.65 4.57386 7.65 4.85H8.15ZM8.1987 4.85H8.6987C8.6987 4.57386 8.47484 4.35 8.1987 4.35V4.85ZM4.90478 4.89404V5.39404C5.18093 5.39404 5.40479 5.17019 5.40479 4.89404H4.90478ZM4.85 4.89404H4.35C4.35 5.17019 4.57386 5.39404 4.85 5.39404V4.89404ZM8.1987 4.89404V5.39404C8.47484 5.39404 8.6987 5.17019 8.6987 4.89404H8.1987ZM8.15 4.89404H7.65C7.65 5.17019 7.87386 5.39404 8.15 5.39404V4.89404ZM5.01845 7.90927C4.87311 7.67447 4.56494 7.60195 4.33014 7.74729C4.09534 7.89263 4.02282 8.2008 4.16816 8.4356L5.01845 7.90927ZM8.83184 8.4356C8.97718 8.2008 8.90466 7.89263 8.66986 7.74729C8.43506 7.60195 8.12689 7.67447 7.98155 7.90927L8.83184 8.4356ZM12 6.5H11.5C11.5 9.26142 9.26142 11.5 6.5 11.5V12V12.5C9.81371 12.5 12.5 9.81371 12.5 6.5H12ZM6.5 12V11.5C3.73858 11.5 1.5 9.26142 1.5 6.5H1H0.5C0.5 9.81371 3.18629 12.5 6.5 12.5V12ZM1 6.5H1.5C1.5 3.73858 3.73858 1.5 6.5 1.5V1V0.5C3.18629 0.5 0.5 3.18629 0.5 6.5H1ZM6.5 1V1.5C9.26142 1.5 11.5 3.73858 11.5 6.5H12H12.5C12.5 3.18629 9.81371 0.5 6.5 0.5V1ZM4.85 4.85V5.35H4.90478V4.85V4.35H4.85V4.85ZM8.15 4.85V5.35H8.1987V4.85V4.35H8.15V4.85ZM4.90478 4.85H4.40478V4.89404H4.90478H5.40479V4.85H4.90478ZM4.90478 4.89404V4.39404H4.85V4.89404V5.39404H4.90478V4.89404ZM4.85 4.89404H5.35V4.85H4.85H4.35V4.89404H4.85ZM8.1987 4.85H7.6987V4.89404H8.1987H8.6987V4.85H8.1987ZM8.1987 4.89404V4.39404H8.15V4.89404V5.39404H8.1987V4.89404ZM8.15 4.89404H8.65V4.85H8.15H7.65V4.89404H8.15ZM6.5 9.24997V8.74997C5.88309 8.74997 5.33455 8.41993 5.01845 7.90927L4.59331 8.17243L4.16816 8.4356C4.65408 9.22059 5.51371 9.74997 6.5 9.74997V9.24997ZM8.40669 8.17243L7.98155 7.90927C7.66545 8.41993 7.11691 8.74997 6.5 8.74997V9.24997V9.74997C7.48629 9.74997 8.34592 9.22059 8.83184 8.4356L8.40669 8.17243Z" fill="#9E9E9E"/>
</svg>
